<svg id="visual" viewBox="0 0 900 600" width="900" height="600" xmlns="http://www.w3.org/2000/svg" xmlns:xlink="http://www.w3.org/1999/xlink" version="1.1"><rect x="0" y="0" width="900" height="600" fill="#0C0A19"></rect><path d="M0 400L21.5 395.8C43 391.7 86 383.3 128.8 375.5C171.7 367.7 214.3 360.3 257.2 347.2C300 334 343 315 385.8 317.2C428.7 319.3 471.3 342.7 514.2 343.5C557 344.3 600 322.7 642.8 328.7C685.7 334.7 728.3 368.3 771.2 371.5C814 374.7 857 347.3 878.5 333.7L900 320L900 601L878.5 601C857 601 814 601 771.2 601C728.3 601 685.7 601 642.8 601C600 601 557 601 514.2 601C471.3 601 428.7 601 385.8 601C343 601 300 601 257.2 601C214.3 601 171.7 601 128.8 601C86 601 43 601 21.5 601L0 601Z" fill="#c332ab"></path><path d="M0 405L21.5 404.3C43 403.7 86 402.3 128.8 393.5C171.7 384.7 214.3 368.3 257.2 363.3C300 358.3 343 364.7 385.8 377.7C428.7 390.7 471.3 410.3 514.2 415.5C557 420.7 600 411.3 642.8 402.2C685.7 393 728.3 384 771.2 387.7C814 391.3 857 407.7 878.5 415.8L900 424L900 601L878.5 601C857 601 814 601 771.2 601C728.3 601 685.7 601 642.8 601C600 601 557 601 514.2 601C471.3 601 428.7 601 385.8 601C343 601 300 601 257.2 601C214.3 601 171.7 601 128.8 601C86 601 43 601 21.5 601L0 601Z" fill="#9d68dc"></path><path d="M0 433L21.5 433.2C43 433.3 86 433.7 128.8 430.3C171.7 427 214.3 420 257.2 419.2C300 418.3 343 423.7 385.8 422C428.7 420.3 471.3 411.7 514.2 404.5C557 397.3 600 391.7 642.8 401C685.7 410.3 728.3 434.7 771.2 447.5C814 460.3 857 461.7 878.5 462.3L900 463L900 601L878.5 601C857 601 814 601 771.2 601C728.3 601 685.7 601 642.8 601C600 601 557 601 514.2 601C471.3 601 428.7 601 385.8 601C343 601 300 601 257.2 601C214.3 601 171.7 601 128.8 601C86 601 43 601 21.5 601L0 601Z" fill="#638ef8"></path><path d="M0 462L21.5 464.2C43 466.3 86 470.7 128.8 465.2C171.7 459.7 214.3 444.3 257.2 437.2C300 430 343 431 385.8 430.7C428.7 430.3 471.3 428.7 514.2 438.7C557 448.7 600 470.3 642.8 481C685.7 491.7 728.3 491.3 771.2 479C814 466.7 857 442.3 878.5 430.2L900 418L900 601L878.5 601C857 601 814 601 771.2 601C728.3 601 685.7 601 642.8 601C600 601 557 601 514.2 601C471.3 601 428.7 601 385.8 601C343 601 300 601 257.2 601C214.3 601 171.7 601 128.8 601C86 601 43 601 21.5 601L0 601Z" fill="#00abff"></path><path d="M0 492L21.5 495.3C43 498.7 86 505.3 128.8 509.8C171.7 514.3 214.3 516.7 257.2 516.8C300 517 343 515 385.8 511.5C428.7 508 471.3 503 514.2 500.5C557 498 600 498 642.8 495.5C685.7 493 728.3 488 771.2 484.8C814 481.7 857 480.3 878.5 479.7L900 479L900 601L878.5 601C857 601 814 601 771.2 601C728.3 601 685.7 601 642.8 601C600 601 557 601 514.2 601C471.3 601 428.7 601 385.8 601C343 601 300 601 257.2 601C214.3 601 171.7 601 128.8 601C86 601 43 601 21.5 601L0 601Z" fill="#00c4ff"></path><path d="M0 507L21.5 511.5C43 516 86 525 128.8 531.5C171.7 538 214.3 542 257.2 536.2C300 530.3 343 514.7 385.8 513.5C428.7 512.3 471.3 525.7 514.2 525.8C557 526 600 513 642.8 510C685.7 507 728.3 514 771.2 520.5C814 527 857 533 878.5 536L900 539L900 601L878.5 601C857 601 814 601 771.2 601C728.3 601 685.7 601 642.8 601C600 601 557 601 514.2 601C471.3 601 428.7 601 385.8 601C343 601 300 601 257.2 601C214.3 601 171.7 601 128.8 601C86 601 43 601 21.5 601L0 601Z" fill="#00dbff"></path><path d="M0 537L21.5 542C43 547 86 557 128.8 561.2C171.7 565.3 214.3 563.7 257.2 558C300 552.3 343 542.7 385.8 539.3C428.7 536 471.3 539 514.2 545.2C557 551.3 600 560.7 642.8 563.5C685.7 566.3 728.3 562.7 771.2 563.5C814 564.3 857 569.7 878.5 572.3L900 575L900 601L878.5 601C857 601 814 601 771.2 601C728.3 601 685.7 601 642.8 601C600 601 557 601 514.2 601C471.3 601 428.7 601 385.8 601C343 601 300 601 257.2 601C214.3 601 171.7 601 128.8 601C86 601 43 601 21.5 601L0 601Z" fill="#1ff0fa"></path></svg>